# xmcd CD database file
#
# Track frame offsets:
#	150
#	11918
#	29177
#	50185
#	68021
#	90477
#	102854
#	126571
#	145154
#	163520
#	179975
#	195142
#	212251
#	234918
#	247388
#	265684
#	288587
#	308835
#	327343
#	343657
#
# Disc length: 4781 seconds
#
# Revision: 0
# Processed by: cddbd v1.4PL0 Copyright (c) Steve Scherf et al.
# Submitted via: CDex 1.50
#
DISCID=3212ab14
DTITLE=Brownie McGhee - The Best OF Brownie McGhee/The Facts Of Life
DYEAR=1900
DGENRE=Blues
TTITLE0=Death Of Blind Boy Fuller
TTITLE1=My Last Suit
TTITLE2=Howdy Blues
TTITLE3=Worried Life Blues
TTITLE4=Southern Train
TTITLE5=I Can't Sleep At Night
TTITLE6=Key To The Highway
TTITLE7=In The Evening
TTITLE8=We Have No Friends
TTITLE9=Sporting Life Blues
TTITLE10=Lo Mo Cra De
TTITLE11=Big Changes
TTITLE12=Don't Abuse Your Woman
TTITLE13=Let Me Go
TTITLE14=Blues Had A Baby
TTITLE15=Get With It
TTITLE16=Facts Of Life
TTITLE17=Ease My Mind
TTITLE18=Sap Sucker
TTITLE19=When The Wind Blows
EXTD=
EXTT0=
EXTT1=
EXTT2=
EXTT3=
EXTT4=
EXTT5=
EXTT6=
EXTT7=
EXTT8=
EXTT9=
EXTT10=
EXTT11=
EXTT12=
EXTT13=
EXTT14=
EXTT15=
EXTT16=
EXTT17=
EXTT18=
EXTT19=
PLAYORDER=
